<svg xmlns="http://www.w3.org/2000/svg" width="89.792" height="9.226" viewBox="0 0 89.792 9.226"><defs><style>.a{fill:#202223;}</style></defs><path class="a" d="M2.492-1.974V-3.528H8.484v1.554ZM.238,0,4.494-9.058H6.51L10.808,0H8.778L5.054-8.162h.9L2.254,0ZM20.062-2.744a2.851,2.851,0,0,1-.581,1.568,3.162,3.162,0,0,1-1.407,1,5.95,5.95,0,0,1-2.128.343,6.066,6.066,0,0,1-2.3-.413,3.575,3.575,0,0,1-1.6-1.218,3.32,3.32,0,0,1-.581-2,3.351,3.351,0,0,1,.581-2,3.6,3.6,0,0,1,1.6-1.232,5.977,5.977,0,0,1,2.3-.42,5.834,5.834,0,0,1,2.114.343,3.221,3.221,0,0,1,1.393.987,2.863,2.863,0,0,1,.6,1.554H18.382A2,2,0,0,0,17.5-5.32a2.934,2.934,0,0,0-1.554-.392,3.36,3.36,0,0,0-1.323.252,2.2,2.2,0,0,0-.952.749,2.094,2.094,0,0,0-.357,1.253,2.1,2.1,0,0,0,.35,1.239,2.1,2.1,0,0,0,.952.742,3.5,3.5,0,0,0,1.33.245,2.966,2.966,0,0,0,1.6-.392,1.958,1.958,0,0,0,.847-1.12Zm9.6,0a2.851,2.851,0,0,1-.581,1.568,3.162,3.162,0,0,1-1.407,1A5.95,5.95,0,0,1,25.55.168a6.066,6.066,0,0,1-2.3-.413,3.575,3.575,0,0,1-1.6-1.218,3.319,3.319,0,0,1-.581-2,3.351,3.351,0,0,1,.581-2,3.6,3.6,0,0,1,1.6-1.232,5.977,5.977,0,0,1,2.3-.42,5.834,5.834,0,0,1,2.114.343,3.221,3.221,0,0,1,1.393.987,2.863,2.863,0,0,1,.6,1.554H27.986A2,2,0,0,0,27.1-5.32a2.934,2.934,0,0,0-1.554-.392,3.36,3.36,0,0,0-1.323.252,2.2,2.2,0,0,0-.952.749,2.094,2.094,0,0,0-.357,1.253,2.1,2.1,0,0,0,.35,1.239,2.1,2.1,0,0,0,.952.742,3.5,3.5,0,0,0,1.33.245,2.966,2.966,0,0,0,1.6-.392A1.958,1.958,0,0,0,28-2.744Zm7.686.434h1.764a2.513,2.513,0,0,1-.6,1.274,3.243,3.243,0,0,1-1.309.882A5.567,5.567,0,0,1,35.2.168a6.059,6.059,0,0,1-2.352-.427,3.6,3.6,0,0,1-1.6-1.239,3.308,3.308,0,0,1-.574-1.96,3.4,3.4,0,0,1,.56-1.967A3.546,3.546,0,0,1,32.8-6.678a5.858,5.858,0,0,1,2.345-.434,5.293,5.293,0,0,1,2.282.434,2.832,2.832,0,0,1,1.351,1.309,4.434,4.434,0,0,1,.371,2.233H32.508a2.008,2.008,0,0,0,.4.966,2.235,2.235,0,0,0,.9.686,3.309,3.309,0,0,0,1.351.252,3.129,3.129,0,0,0,1.449-.3A1.436,1.436,0,0,0,37.352-2.31Zm-2.3-3.416a2.8,2.8,0,0,0-1.638.441A1.969,1.969,0,0,0,32.606-4.2h4.732a1.48,1.48,0,0,0-.665-1.113A2.794,2.794,0,0,0,35.056-5.726ZM40.5-6.958h1.82V0H40.5Zm5.054-.154a4.03,4.03,0,0,1,1.19.168,2.617,2.617,0,0,1,.952.518,2.334,2.334,0,0,1,.63.889,3.327,3.327,0,0,1,.224,1.281V0h-1.82V-3.934a1.732,1.732,0,0,0-.427-1.295,1.957,1.957,0,0,0-1.393-.413,3.023,3.023,0,0,0-1.316.28,2.822,2.822,0,0,0-.952.707,1.68,1.68,0,0,0-.42.889L42.21-4.48a2.806,2.806,0,0,1,.322-.952,3.212,3.212,0,0,1,.679-.847,3.2,3.2,0,0,1,1.015-.609A3.715,3.715,0,0,1,45.556-7.112Zm4.158.154h5.4v1.414h-5.4Zm1.792-1.9h1.82V0h-1.82ZM61.53-5.32h7.182v1.554H61.53ZM68.4-9.058h1.862V0H68.4Zm-8.512,0h1.862V0H59.892ZM80.234,0h-1.82V-6.958h1.82ZM78.512-3.346l.014.476a4.2,4.2,0,0,1-.14.567,4.144,4.144,0,0,1-.343.791,3.935,3.935,0,0,1-.6.805,2.865,2.865,0,0,1-.9.63,2.99,2.99,0,0,1-1.26.245,4.574,4.574,0,0,1-1.127-.14,2.859,2.859,0,0,1-1-.469,2.3,2.3,0,0,1-.714-.889,3.3,3.3,0,0,1-.266-1.414V-6.958H74v3.906A2.162,2.162,0,0,0,74.221-2a1.171,1.171,0,0,0,.637.539,2.889,2.889,0,0,0,.994.154,2.476,2.476,0,0,0,1.3-.329,2.962,2.962,0,0,0,.889-.805A3.026,3.026,0,0,0,78.512-3.346ZM88.228-2.31h1.764a2.513,2.513,0,0,1-.6,1.274,3.243,3.243,0,0,1-1.309.882,5.567,5.567,0,0,1-2.016.322A6.059,6.059,0,0,1,83.72-.259a3.6,3.6,0,0,1-1.6-1.239,3.308,3.308,0,0,1-.574-1.96,3.4,3.4,0,0,1,.56-1.967,3.546,3.546,0,0,1,1.561-1.253,5.858,5.858,0,0,1,2.345-.434,5.293,5.293,0,0,1,2.282.434,2.832,2.832,0,0,1,1.351,1.309,4.433,4.433,0,0,1,.371,2.233H83.384a2.008,2.008,0,0,0,.4.966,2.235,2.235,0,0,0,.9.686,3.309,3.309,0,0,0,1.351.252,3.129,3.129,0,0,0,1.449-.3A1.436,1.436,0,0,0,88.228-2.31Zm-2.3-3.416a2.8,2.8,0,0,0-1.638.441A1.969,1.969,0,0,0,83.482-4.2h4.732a1.48,1.48,0,0,0-.665-1.113A2.794,2.794,0,0,0,85.932-5.726Z" transform="translate(-0.238 9.058)"/></svg>