<svg xmlns="http://www.w3.org/2000/svg" width="200.992" height="22.72" viewBox="0 0 200.992 22.72"><defs><style>.a{fill:#f2eae6;}</style></defs><path class="a" d="M2.464,0V-20.7H14.4a11.741,11.741,0,0,1,6.32,1.392,4.608,4.608,0,0,1,2.16,4.144,4.116,4.116,0,0,1-.864,2.768,5.059,5.059,0,0,1-2.448,1.488,16.289,16.289,0,0,1-3.728.608l.128-.224a25.5,25.5,0,0,1,2.96.224,8.135,8.135,0,0,1,2.448.7A4.1,4.1,0,0,1,23.04-8.176a4.226,4.226,0,0,1,.608,2.384,4.895,4.895,0,0,1-1.024,3.184A6.2,6.2,0,0,1,19.776-.7a13.873,13.873,0,0,1-4.224.7ZM6.72-3.52H15.1a6.054,6.054,0,0,0,3.1-.656,2.264,2.264,0,0,0,1.088-2.1,1.8,1.8,0,0,0-.64-1.536,3.372,3.372,0,0,0-1.7-.592,21.6,21.6,0,0,0-2.272-.112H6.72Zm0-8.416h7.52a6.6,6.6,0,0,0,3.1-.592,2.12,2.12,0,0,0,1.088-2.032,2.12,2.12,0,0,0-1.088-2.032,6.025,6.025,0,0,0-2.88-.592H6.72ZM41.376-5.28h4.032a5.745,5.745,0,0,1-1.36,2.912A7.414,7.414,0,0,1,41.056-.352a12.725,12.725,0,0,1-4.608.736,13.85,13.85,0,0,1-5.376-.976,8.219,8.219,0,0,1-3.648-2.832A7.561,7.561,0,0,1,26.112-7.9a7.772,7.772,0,0,1,1.28-4.5,8.105,8.105,0,0,1,3.568-2.864,13.389,13.389,0,0,1,5.36-.992,12.1,12.1,0,0,1,5.216.992,6.472,6.472,0,0,1,3.088,2.992,10.134,10.134,0,0,1,.848,5.1H30.3a4.589,4.589,0,0,0,.912,2.208,5.109,5.109,0,0,0,2.048,1.568,7.562,7.562,0,0,0,3.088.576A7.152,7.152,0,0,0,39.664-3.5,3.282,3.282,0,0,0,41.376-5.28Zm-5.248-7.808a6.392,6.392,0,0,0-3.744,1.008A4.5,4.5,0,0,0,30.528-9.6H41.344a3.384,3.384,0,0,0-1.52-2.544A6.385,6.385,0,0,0,36.128-13.088Zm11.1-2.816H59.584v3.232H47.232Zm4.1-4.352h4.16V0h-4.16ZM61.12-15.9H73.472v3.232H61.12Zm4.1-4.352h4.16V0h-4.16ZM90.4-5.28h4.032a5.745,5.745,0,0,1-1.36,2.912A7.414,7.414,0,0,1,90.08-.352a12.725,12.725,0,0,1-4.608.736A13.85,13.85,0,0,1,80.1-.592a8.219,8.219,0,0,1-3.648-2.832A7.561,7.561,0,0,1,75.136-7.9a7.772,7.772,0,0,1,1.28-4.5,8.105,8.105,0,0,1,3.568-2.864,13.389,13.389,0,0,1,5.36-.992,12.1,12.1,0,0,1,5.216.992,6.472,6.472,0,0,1,3.088,2.992,10.134,10.134,0,0,1,.848,5.1H79.328A4.589,4.589,0,0,0,80.24-4.96a5.109,5.109,0,0,0,2.048,1.568,7.562,7.562,0,0,0,3.088.576A7.152,7.152,0,0,0,88.688-3.5,3.282,3.282,0,0,0,90.4-5.28Zm-5.248-7.808a6.392,6.392,0,0,0-3.744,1.008A4.5,4.5,0,0,0,79.552-9.6H90.368a3.384,3.384,0,0,0-1.52-2.544A6.385,6.385,0,0,0,85.152-13.088ZM97.6-15.9h4.16V0H97.6Zm10.272,3.424a6.6,6.6,0,0,0-3.1.688,6.6,6.6,0,0,0-2.112,1.68,6.48,6.48,0,0,0-1.12,1.92l-.032-1.76a6.2,6.2,0,0,1,.256-1.136,9.82,9.82,0,0,1,.672-1.632,7.87,7.87,0,0,1,1.184-1.7,5.774,5.774,0,0,1,1.792-1.328,5.587,5.587,0,0,1,2.464-.512ZM137.7-9.152V-20.7h4.256v12a9.937,9.937,0,0,1-.592,3.584,7.125,7.125,0,0,1-1.68,2.592,8.816,8.816,0,0,1-2.544,1.712,12.88,12.88,0,0,1-3.168.944,21.686,21.686,0,0,1-3.6.288,22.977,22.977,0,0,1-3.712-.288,12.848,12.848,0,0,1-3.216-.944,8.38,8.38,0,0,1-2.512-1.712A7.344,7.344,0,0,1,119.28-5.12a9.937,9.937,0,0,1-.592-3.584v-12h4.256V-9.152a6.039,6.039,0,0,0,.96,3.7,4.81,4.81,0,0,0,2.64,1.728,14.389,14.389,0,0,0,3.824.464,13.765,13.765,0,0,0,3.728-.464,4.884,4.884,0,0,0,2.624-1.728A5.965,5.965,0,0,0,137.7-9.152ZM155.712.384a13.6,13.6,0,0,1-5.3-.96,7.983,7.983,0,0,1-3.568-2.8,7.735,7.735,0,0,1-1.28-4.528,7.885,7.885,0,0,1,1.28-4.56,7.9,7.9,0,0,1,3.568-2.832,13.6,13.6,0,0,1,5.3-.96,13.362,13.362,0,0,1,5.264.96,7.924,7.924,0,0,1,3.536,2.832,7.886,7.886,0,0,1,1.28,4.56,7.735,7.735,0,0,1-1.28,4.528,8.007,8.007,0,0,1-3.536,2.8A13.362,13.362,0,0,1,155.712.384Zm0-3.2a7.273,7.273,0,0,0,2.992-.592,4.851,4.851,0,0,0,2.1-1.728,4.827,4.827,0,0,0,.768-2.768,4.982,4.982,0,0,0-.768-2.8,4.9,4.9,0,0,0-2.08-1.776,7.079,7.079,0,0,0-3.008-.608,7.217,7.217,0,0,0-3.008.608,5.009,5.009,0,0,0-2.128,1.76,4.887,4.887,0,0,0-.784,2.816,4.827,4.827,0,0,0,.768,2.768,4.835,4.835,0,0,0,2.112,1.728A7.468,7.468,0,0,0,155.712-2.816Zm11.808-12.8h12.8v3.168h-12.8Zm9.728-6.688h3.3v3.36h-2.3a4.575,4.575,0,0,0-1.6.192,1.82,1.82,0,0,0-1.024.816,3.311,3.311,0,0,0-.352,1.68V0H171.1V-16.768a6.3,6.3,0,0,1,.7-3.152,4.174,4.174,0,0,1,2.08-1.808A8.7,8.7,0,0,1,177.248-22.3Zm4.384,1.6h21.824v3.552H181.632Zm8.8,3.1h4.256V0h-4.256Z" transform="translate(-2.464 22.304)"/></svg>