<svg xmlns="http://www.w3.org/2000/svg" width="120.057" height="10.8" viewBox="0 0 120.057 10.8"><defs><style>.a{fill:#e5e5e5;}</style></defs><path class="a" d="M.432-2.532H1.3a1.828,1.828,0,0,0,.3.9,1.818,1.818,0,0,0,.726.624A2.427,2.427,0,0,0,3.408-.78a2.239,2.239,0,0,0,.906-.162,1.224,1.224,0,0,0,.552-.45,1.211,1.211,0,0,0,.186-.672A.988.988,0,0,0,4.86-2.7a1.506,1.506,0,0,0-.552-.408,7.123,7.123,0,0,0-.852-.324q-.468-.144-.948-.336a4.86,4.86,0,0,1-.894-.468A2.3,2.3,0,0,1,.948-4.9,1.7,1.7,0,0,1,.7-5.844,1.891,1.891,0,0,1,.99-6.858a2.139,2.139,0,0,1,.864-.768A2.966,2.966,0,0,1,3.228-7.92a2.426,2.426,0,0,1,1.884.684,2.5,2.5,0,0,1,.6,1.812H4.848a1.553,1.553,0,0,0-.48-1.224A1.82,1.82,0,0,0,3.18-7.02a1.989,1.989,0,0,0-1.068.282.962.962,0,0,0-.456.882,1,1,0,0,0,.1.462,1.06,1.06,0,0,0,.336.366,3.082,3.082,0,0,0,.636.33q.4.162.99.354.384.12.786.288a3.568,3.568,0,0,1,.744.42,1.909,1.909,0,0,1,.552.642,2.046,2.046,0,0,1,.21.978,2.127,2.127,0,0,1-.27,1.05A1.981,1.981,0,0,1,4.9-.18a3.148,3.148,0,0,1-1.47.3A3.665,3.665,0,0,1,2.118-.09a2.624,2.624,0,0,1-.894-.546,2.658,2.658,0,0,1-.534-.7,2.571,2.571,0,0,1-.246-.69A1.2,1.2,0,0,1,.432-2.532ZM11.544,0V-3.768a1.819,1.819,0,0,0-.144-.774A.989.989,0,0,0,10.968-5a1.5,1.5,0,0,0-.72-.156,1.741,1.741,0,0,0-.912.252,2.033,2.033,0,0,0-.69.69A2.374,2.374,0,0,0,8.316-3.2L8.3-3.9a3.057,3.057,0,0,1,.246-.912,2.5,2.5,0,0,1,.468-.7,1.95,1.95,0,0,1,.648-.45,1.953,1.953,0,0,1,.774-.156,2.446,2.446,0,0,1,.864.144,1.715,1.715,0,0,1,.648.42,1.9,1.9,0,0,1,.408.666,2.534,2.534,0,0,1,.144.882V0ZM7.416,0V-8.4h.96V0Zm9.252.12a2.927,2.927,0,0,1-1.44-.372,2.855,2.855,0,0,1-1.086-1.074,3.213,3.213,0,0,1-.414-1.662,3.213,3.213,0,0,1,.414-1.662,2.946,2.946,0,0,1,1.086-1.086,2.855,2.855,0,0,1,1.44-.384,2.823,2.823,0,0,1,1.434.384A2.916,2.916,0,0,1,19.176-4.65a3.25,3.25,0,0,1,.408,1.662,3.25,3.25,0,0,1-.408,1.662A2.825,2.825,0,0,1,18.1-.252,2.893,2.893,0,0,1,16.668.12Zm0-.9a1.89,1.89,0,0,0,.948-.252,1.929,1.929,0,0,0,.726-.75,2.412,2.412,0,0,0,.282-1.206,2.412,2.412,0,0,0-.282-1.206,2.021,2.021,0,0,0-.726-.762,1.824,1.824,0,0,0-.948-.264,1.889,1.889,0,0,0-.954.258,2,2,0,0,0-.738.756,2.4,2.4,0,0,0-.288,1.218,2.412,2.412,0,0,0,.282,1.206,1.9,1.9,0,0,0,.738.75A1.956,1.956,0,0,0,16.668-.78Zm9.744-.1-.24-.012L27.816-6H28.86L26.784,0h-.9L24.348-5.256h.24L23.052,0h-.9L20.088-6h1.044l1.62,5.112-.24.012L23.892-6h1.164ZM39.288-2.6a3.125,3.125,0,0,1-.576,1.452,3.026,3.026,0,0,1-1.158.942,3.636,3.636,0,0,1-1.566.33A3.866,3.866,0,0,1,34.5-.162a3.493,3.493,0,0,1-1.194-.81,3.759,3.759,0,0,1-.8-1.272A4.554,4.554,0,0,1,32.22-3.9a4.541,4.541,0,0,1,.288-1.662,3.771,3.771,0,0,1,.8-1.266,3.493,3.493,0,0,1,1.194-.81,3.866,3.866,0,0,1,1.488-.282,3.665,3.665,0,0,1,1.578.33,3,3,0,0,1,1.158.948,3.177,3.177,0,0,1,.576,1.47h-.888A2.57,2.57,0,0,0,37.89-6.18a2.367,2.367,0,0,0-.846-.624,2.6,2.6,0,0,0-1.056-.216,2.765,2.765,0,0,0-1.374.36A2.718,2.718,0,0,0,33.576-5.6a3.4,3.4,0,0,0-.4,1.7,3.4,3.4,0,0,0,.4,1.7A2.718,2.718,0,0,0,34.614-1.14a2.765,2.765,0,0,0,1.374.36,2.619,2.619,0,0,0,1.05-.21,2.317,2.317,0,0,0,.84-.618,2.575,2.575,0,0,0,.522-1ZM45.768,0h-.96V-6h.96Zm-.9-2.8.012.336q-.012.144-.066.444a4.542,4.542,0,0,1-.18.666,2.848,2.848,0,0,1-.36.7,1.893,1.893,0,0,1-.6.552,1.756,1.756,0,0,1-.906.216,2.654,2.654,0,0,1-.714-.1,2.03,2.03,0,0,1-.678-.336,1.657,1.657,0,0,1-.5-.654,2.509,2.509,0,0,1-.192-1.044V-6h.96v3.744a1.721,1.721,0,0,0,.174.846,1,1,0,0,0,.474.438,1.651,1.651,0,0,0,.672.132,1.63,1.63,0,0,0,1.02-.312A2.071,2.071,0,0,0,44.6-1.92,2.8,2.8,0,0,0,44.868-2.8Zm2.172.864h.888a1.207,1.207,0,0,0,.39.84,1.469,1.469,0,0,0,1.026.324,1.561,1.561,0,0,0,.642-.108.736.736,0,0,0,.342-.294.809.809,0,0,0,.108-.414.653.653,0,0,0-.138-.438,1.065,1.065,0,0,0-.372-.27,4.692,4.692,0,0,0-.534-.2q-.348-.132-.714-.282a3.968,3.968,0,0,1-.684-.36,1.7,1.7,0,0,1-.51-.516,1.361,1.361,0,0,1-.192-.738,1.624,1.624,0,0,1,.144-.678,1.593,1.593,0,0,1,.414-.552,1.991,1.991,0,0,1,.636-.366,2.373,2.373,0,0,1,.81-.132,1.992,1.992,0,0,1,1.014.24,1.6,1.6,0,0,1,.636.678,2.323,2.323,0,0,1,.234,1.014h-.828a1.344,1.344,0,0,0-.342-.786,1.028,1.028,0,0,0-.738-.246A1.166,1.166,0,0,0,48.516-5a.706.706,0,0,0-.264.576.566.566,0,0,0,.192.438,1.9,1.9,0,0,0,.5.312q.306.138.654.282t.672.288a2.868,2.868,0,0,1,.576.336,1.437,1.437,0,0,1,.4.474,1.482,1.482,0,0,1,.15.7,1.7,1.7,0,0,1-.234.894,1.56,1.56,0,0,1-.684.606,2.523,2.523,0,0,1-1.1.216,2.954,2.954,0,0,1-1-.15,2.1,2.1,0,0,1-.69-.4,1.958,1.958,0,0,1-.426-.522,1.814,1.814,0,0,1-.2-.54A1.462,1.462,0,0,1,47.04-1.932ZM52.2-6h3.528v.9H52.2Zm1.284-1.56h.96V0h-.96ZM59.352.12a2.927,2.927,0,0,1-1.44-.372,2.855,2.855,0,0,1-1.086-1.074,3.213,3.213,0,0,1-.414-1.662,3.213,3.213,0,0,1,.414-1.662,2.946,2.946,0,0,1,1.086-1.086,2.855,2.855,0,0,1,1.44-.384,2.823,2.823,0,0,1,1.434.384A2.916,2.916,0,0,1,61.86-4.65a3.25,3.25,0,0,1,.408,1.662,3.25,3.25,0,0,1-.408,1.662A2.825,2.825,0,0,1,60.786-.252,2.893,2.893,0,0,1,59.352.12Zm0-.9a1.89,1.89,0,0,0,.948-.252,1.929,1.929,0,0,0,.726-.75,2.412,2.412,0,0,0,.282-1.206,2.412,2.412,0,0,0-.282-1.206,2.021,2.021,0,0,0-.726-.762,1.824,1.824,0,0,0-.948-.264,1.889,1.889,0,0,0-.954.258,2,2,0,0,0-.738.756,2.4,2.4,0,0,0-.288,1.218,2.412,2.412,0,0,0,.282,1.206,1.9,1.9,0,0,0,.738.75A1.956,1.956,0,0,0,59.352-.78ZM63.492-6h.96V0h-.96Zm3.024-.12a2.447,2.447,0,0,1,.864.144,1.715,1.715,0,0,1,.648.42,1.9,1.9,0,0,1,.408.666,2.534,2.534,0,0,1,.144.882V0h-.96V-3.768A1.484,1.484,0,0,0,67.3-4.812a1.265,1.265,0,0,0-.972-.348,1.741,1.741,0,0,0-.912.252,2.033,2.033,0,0,0-.69.69,2.374,2.374,0,0,0-.33,1.014l-.012-.7a3.057,3.057,0,0,1,.246-.912,2.5,2.5,0,0,1,.468-.7,1.95,1.95,0,0,1,.648-.45A1.953,1.953,0,0,1,66.516-6.12Zm4.032,0a2.446,2.446,0,0,1,.864.144,1.715,1.715,0,0,1,.648.42,1.9,1.9,0,0,1,.408.666,2.534,2.534,0,0,1,.144.882V0h-.96V-3.768a1.484,1.484,0,0,0-.324-1.044,1.265,1.265,0,0,0-.972-.348,1.741,1.741,0,0,0-.912.252,2.033,2.033,0,0,0-.69.69,2.374,2.374,0,0,0-.33,1.014l-.012-.7a3.057,3.057,0,0,1,.246-.912,2.5,2.5,0,0,1,.468-.7,1.95,1.95,0,0,1,.648-.45A1.953,1.953,0,0,1,70.548-6.12ZM75.612-7.8h6.24v.9h-6.24Zm2.64.8h.96V0h-.96Zm7.932,7V-3.768a1.819,1.819,0,0,0-.144-.774A.989.989,0,0,0,85.608-5a1.5,1.5,0,0,0-.72-.156,1.741,1.741,0,0,0-.912.252,2.033,2.033,0,0,0-.69.69,2.374,2.374,0,0,0-.33,1.014l-.012-.7a3.057,3.057,0,0,1,.246-.912,2.5,2.5,0,0,1,.468-.7,1.95,1.95,0,0,1,.648-.45,1.953,1.953,0,0,1,.774-.156,2.447,2.447,0,0,1,.864.144,1.715,1.715,0,0,1,.648.42A1.9,1.9,0,0,1,87-4.89a2.534,2.534,0,0,1,.144.882V0ZM82.056,0V-8.4h.96V0Zm10.9-1.932h.9a2.463,2.463,0,0,1-.426,1.05,2.338,2.338,0,0,1-.864.732,2.69,2.69,0,0,1-1.23.27,2.888,2.888,0,0,1-1.512-.4,2.9,2.9,0,0,1-1.062-1.1,3.243,3.243,0,0,1-.39-1.6A3.361,3.361,0,0,1,88.746-4.6a2.878,2.878,0,0,1,1.038-1.116,2.772,2.772,0,0,1,1.488-.408,2.682,2.682,0,0,1,1.482.39,2.311,2.311,0,0,1,.9,1.14,4.395,4.395,0,0,1,.234,1.842h-4.56a2.487,2.487,0,0,0,.324,1.032,1.887,1.887,0,0,0,.7.69,1.953,1.953,0,0,0,.984.246A1.686,1.686,0,0,0,92.37-1.1,1.587,1.587,0,0,0,92.952-1.932ZM91.308-5.22a1.851,1.851,0,0,0-1.248.432,2.107,2.107,0,0,0-.672,1.176H92.9a1.659,1.659,0,0,0-.51-1.2A1.588,1.588,0,0,0,91.308-5.22ZM95.124-6h.96V0h-.96Zm3.024-.12a2.446,2.446,0,0,1,.864.144,1.715,1.715,0,0,1,.648.42,1.9,1.9,0,0,1,.408.666,2.534,2.534,0,0,1,.144.882V0h-.96V-3.768a1.484,1.484,0,0,0-.324-1.044,1.265,1.265,0,0,0-.972-.348,1.741,1.741,0,0,0-.912.252,2.033,2.033,0,0,0-.69.69,2.374,2.374,0,0,0-.33,1.014l-.012-.7a3.057,3.057,0,0,1,.246-.912,2.5,2.5,0,0,1,.468-.7,1.95,1.95,0,0,1,.648-.45A1.954,1.954,0,0,1,98.148-6.12Zm4.032,0a2.446,2.446,0,0,1,.864.144,1.715,1.715,0,0,1,.648.42,1.9,1.9,0,0,1,.408.666,2.534,2.534,0,0,1,.144.882V0h-.96V-3.768a1.484,1.484,0,0,0-.324-1.044,1.265,1.265,0,0,0-.972-.348,1.741,1.741,0,0,0-.912.252,2.033,2.033,0,0,0-.69.69,2.374,2.374,0,0,0-.33,1.014l-.012-.7a3.057,3.057,0,0,1,.246-.912,2.5,2.5,0,0,1,.468-.7,1.95,1.95,0,0,1,.648-.45A1.954,1.954,0,0,1,102.18-6.12Zm4.812-2.28v1.164h-1.248V-8.4Zm-1.1,2.4h.96V0h-.96Zm2.6,0h.96V0h-.96Zm3.024-.12a2.446,2.446,0,0,1,.864.144,1.715,1.715,0,0,1,.648.42,1.9,1.9,0,0,1,.408.666,2.534,2.534,0,0,1,.144.882V0h-.96V-3.768a1.484,1.484,0,0,0-.324-1.044,1.265,1.265,0,0,0-.972-.348,1.741,1.741,0,0,0-.912.252,2.033,2.033,0,0,0-.69.69,2.374,2.374,0,0,0-.33,1.014l-.012-.7a3.057,3.057,0,0,1,.246-.912,2.5,2.5,0,0,1,.468-.7,1.95,1.95,0,0,1,.648-.45A1.954,1.954,0,0,1,111.516-6.12Zm5.772,5.172a2.513,2.513,0,0,1-1.206-.306,2.411,2.411,0,0,1-.924-.882,2.585,2.585,0,0,1-.354-1.38,2.651,2.651,0,0,1,.348-1.386,2.459,2.459,0,0,1,.912-.9,2.451,2.451,0,0,1,1.224-.318,2.448,2.448,0,0,1,.39.03,1.994,1.994,0,0,1,.354.09h2.436v1.032a2.893,2.893,0,0,1-1.026-.192,6.232,6.232,0,0,1-.87-.4l-.048-.048a2.437,2.437,0,0,1,.69.54,2.169,2.169,0,0,1,.408.7,2.519,2.519,0,0,1,.138.846,2.655,2.655,0,0,1-.342,1.38,2.338,2.338,0,0,1-.906.882A2.526,2.526,0,0,1,117.288-.948ZM119.052,2.4V2.136a1.166,1.166,0,0,0-.33-.924,1.47,1.47,0,0,0-.99-.288h-1.2a3.18,3.18,0,0,1-.69-.066,1.389,1.389,0,0,1-.486-.2.855.855,0,0,1-.288-.324.953.953,0,0,1-.1-.432.854.854,0,0,1,.276-.69,1.332,1.332,0,0,1,.684-.294,2.549,2.549,0,0,1,.78,0l.576.132a5.127,5.127,0,0,0-1,.132.407.407,0,0,0-.354.408.364.364,0,0,0,.138.294.639.639,0,0,0,.414.114h1.248a3.55,3.55,0,0,1,1.14.174,1.682,1.682,0,0,1,.828.588,1.844,1.844,0,0,1,.312,1.134v.5Zm-1.764-4.248a1.483,1.483,0,0,0,.738-.192,1.482,1.482,0,0,0,.558-.564,1.789,1.789,0,0,0,.216-.912,1.865,1.865,0,0,0-.21-.918,1.461,1.461,0,0,0-.558-.576,1.48,1.48,0,0,0-.744-.2,1.481,1.481,0,0,0-.744.2,1.513,1.513,0,0,0-.564.57,1.815,1.815,0,0,0-.216.924,1.789,1.789,0,0,0,.216.912,1.469,1.469,0,0,0,.564.564A1.516,1.516,0,0,0,117.288-1.848Z" transform="translate(-0.411 8.4)"/></svg>