<svg xmlns="http://www.w3.org/2000/svg" width="115.164" height="10.8" viewBox="0 0 115.164 10.8"><defs><style>.a{fill:#e5e5e5;}</style></defs><path class="a" d="M1.836-4.344H6.78v.9H1.836ZM6.72-7.8h.96V0H6.72ZM.96-7.8h.96V0H.96Zm9.648-.6v1.164H9.36V-8.4ZM9.5-6h.96V0H9.5ZM14.376.12a2.294,2.294,0,0,1-1.314-.4,2.8,2.8,0,0,1-.942-1.1,3.56,3.56,0,0,1-.348-1.6A3.706,3.706,0,0,1,12.108-4.6a2.77,2.77,0,0,1,.924-1.116,2.3,2.3,0,0,1,1.344-.408,2.177,2.177,0,0,1,1.1.246,1.667,1.667,0,0,1,.654.678,3.2,3.2,0,0,1,.318,1,7.7,7.7,0,0,1,.09,1.212,5.62,5.62,0,0,1-.1.99,3.952,3.952,0,0,1-.33,1.02,2.076,2.076,0,0,1-.654.792A1.789,1.789,0,0,1,14.376.12Zm.24-.912a1.649,1.649,0,0,0,1.014-.3,1.761,1.761,0,0,0,.594-.8,3.029,3.029,0,0,0,.192-1.1,3.121,3.121,0,0,0-.2-1.158,1.686,1.686,0,0,0-.6-.78,1.7,1.7,0,0,0-1-.282,1.664,1.664,0,0,0-1.392.63,2.505,2.505,0,0,0-.492,1.59,2.527,2.527,0,0,0,.246,1.134,1.945,1.945,0,0,0,.672.78A1.711,1.711,0,0,0,14.616-.792Zm1.8-7.608h.96V0H16.5q-.024-.264-.054-.624t-.03-.576Zm6.948,6.468h.9a2.463,2.463,0,0,1-.426,1.05,2.338,2.338,0,0,1-.864.732,2.69,2.69,0,0,1-1.23.27,2.888,2.888,0,0,1-1.512-.4,2.9,2.9,0,0,1-1.062-1.1,3.243,3.243,0,0,1-.39-1.6A3.361,3.361,0,0,1,19.158-4.6,2.878,2.878,0,0,1,20.2-5.712a2.772,2.772,0,0,1,1.488-.408,2.682,2.682,0,0,1,1.482.39,2.311,2.311,0,0,1,.9,1.14A4.395,4.395,0,0,1,24.3-2.748H19.74a2.487,2.487,0,0,0,.324,1.032,1.887,1.887,0,0,0,.7.69,1.953,1.953,0,0,0,.984.246A1.686,1.686,0,0,0,22.782-1.1,1.587,1.587,0,0,0,23.364-1.932ZM21.72-5.22a1.851,1.851,0,0,0-1.248.432A2.107,2.107,0,0,0,19.8-3.612h3.516a1.659,1.659,0,0,0-.51-1.2A1.588,1.588,0,0,0,21.72-5.22ZM34.944-2.6a3.125,3.125,0,0,1-.576,1.452A3.026,3.026,0,0,1,33.21-.21a3.636,3.636,0,0,1-1.566.33,3.866,3.866,0,0,1-1.488-.282,3.493,3.493,0,0,1-1.194-.81,3.759,3.759,0,0,1-.8-1.272A4.554,4.554,0,0,1,27.876-3.9a4.541,4.541,0,0,1,.288-1.662,3.771,3.771,0,0,1,.8-1.266,3.493,3.493,0,0,1,1.194-.81,3.866,3.866,0,0,1,1.488-.282,3.665,3.665,0,0,1,1.578.33,3,3,0,0,1,1.158.948,3.177,3.177,0,0,1,.576,1.47h-.888a2.57,2.57,0,0,0-.522-1.008A2.367,2.367,0,0,0,32.7-6.8a2.6,2.6,0,0,0-1.056-.216,2.765,2.765,0,0,0-1.374.36A2.718,2.718,0,0,0,29.232-5.6a3.4,3.4,0,0,0-.4,1.7,3.4,3.4,0,0,0,.4,1.7A2.718,2.718,0,0,0,30.27-1.14a2.765,2.765,0,0,0,1.374.36,2.619,2.619,0,0,0,1.05-.21,2.317,2.317,0,0,0,.84-.618,2.575,2.575,0,0,0,.522-1ZM41.424,0h-.96V-6h.96Zm-.9-2.8.012.336q-.012.144-.066.444a4.542,4.542,0,0,1-.18.666,2.848,2.848,0,0,1-.36.7,1.893,1.893,0,0,1-.6.552,1.756,1.756,0,0,1-.906.216,2.654,2.654,0,0,1-.714-.1,2.03,2.03,0,0,1-.678-.336,1.657,1.657,0,0,1-.5-.654,2.509,2.509,0,0,1-.192-1.044V-6h.96v3.744a1.721,1.721,0,0,0,.174.846,1,1,0,0,0,.474.438,1.651,1.651,0,0,0,.672.132,1.63,1.63,0,0,0,1.02-.312,2.071,2.071,0,0,0,.624-.768A2.8,2.8,0,0,0,40.524-2.8Zm2.172.864h.888a1.207,1.207,0,0,0,.39.84A1.469,1.469,0,0,0,45-.768a1.561,1.561,0,0,0,.642-.108.736.736,0,0,0,.342-.294.809.809,0,0,0,.108-.414.653.653,0,0,0-.138-.438,1.065,1.065,0,0,0-.372-.27,4.693,4.693,0,0,0-.534-.2q-.348-.132-.714-.282a3.968,3.968,0,0,1-.684-.36,1.7,1.7,0,0,1-.51-.516,1.361,1.361,0,0,1-.192-.738,1.624,1.624,0,0,1,.144-.678,1.593,1.593,0,0,1,.414-.552,1.992,1.992,0,0,1,.636-.366,2.373,2.373,0,0,1,.81-.132,1.992,1.992,0,0,1,1.014.24A1.6,1.6,0,0,1,46.6-5.2a2.323,2.323,0,0,1,.234,1.014h-.828a1.344,1.344,0,0,0-.342-.786,1.028,1.028,0,0,0-.738-.246A1.166,1.166,0,0,0,44.172-5a.706.706,0,0,0-.264.576.566.566,0,0,0,.192.438,1.9,1.9,0,0,0,.5.312q.306.138.654.282t.672.288a2.868,2.868,0,0,1,.576.336,1.437,1.437,0,0,1,.4.474,1.482,1.482,0,0,1,.15.7,1.7,1.7,0,0,1-.234.894,1.56,1.56,0,0,1-.684.606,2.523,2.523,0,0,1-1.1.216,2.954,2.954,0,0,1-1-.15,2.1,2.1,0,0,1-.69-.4,1.958,1.958,0,0,1-.426-.522,1.814,1.814,0,0,1-.2-.54A1.462,1.462,0,0,1,42.7-1.932ZM47.856-6h3.528v.9H47.856ZM49.14-7.56h.96V0h-.96ZM55.008.12a2.927,2.927,0,0,1-1.44-.372,2.855,2.855,0,0,1-1.086-1.074,3.213,3.213,0,0,1-.414-1.662,3.213,3.213,0,0,1,.414-1.662,2.946,2.946,0,0,1,1.086-1.086,2.855,2.855,0,0,1,1.44-.384,2.823,2.823,0,0,1,1.434.384A2.916,2.916,0,0,1,57.516-4.65a3.25,3.25,0,0,1,.408,1.662,3.25,3.25,0,0,1-.408,1.662A2.825,2.825,0,0,1,56.442-.252,2.893,2.893,0,0,1,55.008.12Zm0-.9a1.89,1.89,0,0,0,.948-.252,1.929,1.929,0,0,0,.726-.75,2.412,2.412,0,0,0,.282-1.206,2.412,2.412,0,0,0-.282-1.206,2.021,2.021,0,0,0-.726-.762,1.824,1.824,0,0,0-.948-.264,1.889,1.889,0,0,0-.954.258,2,2,0,0,0-.738.756,2.4,2.4,0,0,0-.288,1.218,2.412,2.412,0,0,0,.282,1.206,1.9,1.9,0,0,0,.738.75A1.956,1.956,0,0,0,55.008-.78ZM59.148-6h.96V0h-.96Zm3.024-.12a2.446,2.446,0,0,1,.864.144,1.715,1.715,0,0,1,.648.42,1.9,1.9,0,0,1,.408.666,2.534,2.534,0,0,1,.144.882V0h-.96V-3.768a1.484,1.484,0,0,0-.324-1.044,1.265,1.265,0,0,0-.972-.348,1.741,1.741,0,0,0-.912.252,2.033,2.033,0,0,0-.69.69,2.374,2.374,0,0,0-.33,1.014l-.012-.7a3.057,3.057,0,0,1,.246-.912,2.5,2.5,0,0,1,.468-.7,1.95,1.95,0,0,1,.648-.45A1.953,1.953,0,0,1,62.172-6.12Zm4.032,0a2.446,2.446,0,0,1,.864.144,1.715,1.715,0,0,1,.648.42,1.9,1.9,0,0,1,.408.666,2.534,2.534,0,0,1,.144.882V0h-.96V-3.768a1.484,1.484,0,0,0-.324-1.044,1.265,1.265,0,0,0-.972-.348,1.741,1.741,0,0,0-.912.252,2.033,2.033,0,0,0-.69.69A2.374,2.374,0,0,0,64.08-3.2l-.012-.7a3.057,3.057,0,0,1,.246-.912,2.5,2.5,0,0,1,.468-.7,1.95,1.95,0,0,1,.648-.45A1.953,1.953,0,0,1,66.2-6.12ZM71.268-7.8h6.24v.9h-6.24Zm2.64.8h.96V0h-.96ZM81.84,0V-3.768a1.819,1.819,0,0,0-.144-.774A.989.989,0,0,0,81.264-5a1.5,1.5,0,0,0-.72-.156,1.741,1.741,0,0,0-.912.252,2.033,2.033,0,0,0-.69.69,2.374,2.374,0,0,0-.33,1.014L78.6-3.9a3.057,3.057,0,0,1,.246-.912,2.5,2.5,0,0,1,.468-.7,1.95,1.95,0,0,1,.648-.45,1.953,1.953,0,0,1,.774-.156,2.447,2.447,0,0,1,.864.144,1.715,1.715,0,0,1,.648.42,1.9,1.9,0,0,1,.408.666,2.534,2.534,0,0,1,.144.882V0ZM77.712,0V-8.4h.96V0Zm10.9-1.932h.9a2.463,2.463,0,0,1-.426,1.05,2.338,2.338,0,0,1-.864.732,2.69,2.69,0,0,1-1.23.27,2.888,2.888,0,0,1-1.512-.4,2.9,2.9,0,0,1-1.062-1.1,3.243,3.243,0,0,1-.39-1.6A3.361,3.361,0,0,1,84.4-4.6,2.878,2.878,0,0,1,85.44-5.712a2.772,2.772,0,0,1,1.488-.408,2.682,2.682,0,0,1,1.482.39,2.311,2.311,0,0,1,.9,1.14,4.395,4.395,0,0,1,.234,1.842h-4.56a2.487,2.487,0,0,0,.324,1.032,1.887,1.887,0,0,0,.7.69,1.953,1.953,0,0,0,.984.246A1.686,1.686,0,0,0,88.026-1.1,1.587,1.587,0,0,0,88.608-1.932ZM86.964-5.22a1.851,1.851,0,0,0-1.248.432,2.107,2.107,0,0,0-.672,1.176H88.56a1.659,1.659,0,0,0-.51-1.2A1.588,1.588,0,0,0,86.964-5.22ZM90.78-6h.96V0h-.96ZM93.8-6.12a2.446,2.446,0,0,1,.864.144,1.715,1.715,0,0,1,.648.42,1.9,1.9,0,0,1,.408.666,2.534,2.534,0,0,1,.144.882V0h-.96V-3.768a1.484,1.484,0,0,0-.324-1.044,1.265,1.265,0,0,0-.972-.348,1.741,1.741,0,0,0-.912.252,2.033,2.033,0,0,0-.69.69A2.374,2.374,0,0,0,91.68-3.2l-.012-.7a3.057,3.057,0,0,1,.246-.912,2.5,2.5,0,0,1,.468-.7,1.95,1.95,0,0,1,.648-.45A1.954,1.954,0,0,1,93.8-6.12Zm4.032,0a2.446,2.446,0,0,1,.864.144,1.715,1.715,0,0,1,.648.42,1.9,1.9,0,0,1,.408.666,2.534,2.534,0,0,1,.144.882V0h-.96V-3.768a1.484,1.484,0,0,0-.324-1.044,1.265,1.265,0,0,0-.972-.348,1.741,1.741,0,0,0-.912.252,2.033,2.033,0,0,0-.69.69,2.374,2.374,0,0,0-.33,1.014L95.7-3.9a3.057,3.057,0,0,1,.246-.912,2.5,2.5,0,0,1,.468-.7,1.95,1.95,0,0,1,.648-.45A1.954,1.954,0,0,1,97.836-6.12Zm4.812-2.28v1.164H101.4V-8.4Zm-1.1,2.4h.96V0h-.96Zm2.6,0h.96V0h-.96Zm3.024-.12a2.446,2.446,0,0,1,.864.144,1.715,1.715,0,0,1,.648.42,1.9,1.9,0,0,1,.408.666,2.534,2.534,0,0,1,.144.882V0h-.96V-3.768a1.484,1.484,0,0,0-.324-1.044,1.265,1.265,0,0,0-.972-.348,1.741,1.741,0,0,0-.912.252,2.033,2.033,0,0,0-.69.69,2.374,2.374,0,0,0-.33,1.014l-.012-.7a3.057,3.057,0,0,1,.246-.912,2.5,2.5,0,0,1,.468-.7,1.95,1.95,0,0,1,.648-.45A1.954,1.954,0,0,1,107.172-6.12Zm5.772,5.172a2.513,2.513,0,0,1-1.206-.306,2.411,2.411,0,0,1-.924-.882,2.585,2.585,0,0,1-.354-1.38,2.651,2.651,0,0,1,.348-1.386,2.459,2.459,0,0,1,.912-.9,2.451,2.451,0,0,1,1.224-.318,2.448,2.448,0,0,1,.39.03,1.994,1.994,0,0,1,.354.09h2.436v1.032A2.893,2.893,0,0,1,115.1-5.16a6.232,6.232,0,0,1-.87-.4L114.18-5.6a2.437,2.437,0,0,1,.69.54,2.169,2.169,0,0,1,.408.7,2.519,2.519,0,0,1,.138.846,2.655,2.655,0,0,1-.342,1.38,2.338,2.338,0,0,1-.906.882A2.526,2.526,0,0,1,112.944-.948ZM114.708,2.4V2.136a1.166,1.166,0,0,0-.33-.924,1.47,1.47,0,0,0-.99-.288h-1.2a3.18,3.18,0,0,1-.69-.066,1.389,1.389,0,0,1-.486-.2.855.855,0,0,1-.288-.324.953.953,0,0,1-.1-.432.854.854,0,0,1,.276-.69,1.332,1.332,0,0,1,.684-.294,2.549,2.549,0,0,1,.78,0l.576.132a5.127,5.127,0,0,0-1,.132.407.407,0,0,0-.354.408.364.364,0,0,0,.138.294A.639.639,0,0,0,112.14,0h1.248a3.55,3.55,0,0,1,1.14.174,1.682,1.682,0,0,1,.828.588,1.844,1.844,0,0,1,.312,1.134v.5Zm-1.764-4.248a1.483,1.483,0,0,0,.738-.192,1.482,1.482,0,0,0,.558-.564,1.789,1.789,0,0,0,.216-.912,1.865,1.865,0,0,0-.21-.918,1.461,1.461,0,0,0-.558-.576,1.48,1.48,0,0,0-.744-.2,1.481,1.481,0,0,0-.744.2,1.513,1.513,0,0,0-.564.57,1.815,1.815,0,0,0-.216.924,1.789,1.789,0,0,0,.216.912,1.469,1.469,0,0,0,.564.564A1.516,1.516,0,0,0,112.944-1.848Z" transform="translate(-0.96 8.4)"/></svg>