<svg xmlns="http://www.w3.org/2000/svg" width="148.524" height="10.8" viewBox="0 0 148.524 10.8"><defs><style>.a{fill:#e5e5e5;}</style></defs><path class="a" d="M3.492-7.8a5.546,5.546,0,0,1,1.974.306,3.209,3.209,0,0,1,1.278.846,3.32,3.32,0,0,1,.7,1.236,4.952,4.952,0,0,1,.216,1.476,4.824,4.824,0,0,1-.228,1.488A3.43,3.43,0,0,1,6.7-1.188a3.418,3.418,0,0,1-1.29.87A5.157,5.157,0,0,1,3.492,0H.96V-7.8ZM1.92-.9H3.492a4.009,4.009,0,0,0,1.566-.264,2.515,2.515,0,0,0,.978-.7,2.636,2.636,0,0,0,.51-.978A4.062,4.062,0,0,0,6.7-3.936a3.933,3.933,0,0,0-.15-1.08,2.537,2.537,0,0,0-.51-.954,2.473,2.473,0,0,0-.978-.678A4.18,4.18,0,0,0,3.492-6.9H1.92ZM13.284-1.932h.9a2.463,2.463,0,0,1-.426,1.05,2.338,2.338,0,0,1-.864.732,2.69,2.69,0,0,1-1.23.27,2.888,2.888,0,0,1-1.512-.4,2.9,2.9,0,0,1-1.062-1.1,3.243,3.243,0,0,1-.39-1.6A3.361,3.361,0,0,1,9.078-4.6a2.878,2.878,0,0,1,1.038-1.116A2.772,2.772,0,0,1,11.6-6.12a2.682,2.682,0,0,1,1.482.39,2.311,2.311,0,0,1,.9,1.14,4.395,4.395,0,0,1,.234,1.842H9.66a2.487,2.487,0,0,0,.324,1.032,1.887,1.887,0,0,0,.7.69,1.953,1.953,0,0,0,.984.246A1.686,1.686,0,0,0,12.7-1.1,1.587,1.587,0,0,0,13.284-1.932ZM11.64-5.22a1.851,1.851,0,0,0-1.248.432A2.107,2.107,0,0,0,9.72-3.612h3.516a1.659,1.659,0,0,0-.51-1.2A1.588,1.588,0,0,0,11.64-5.22ZM17.724.12a2.275,2.275,0,0,1-1.3-.4,2.85,2.85,0,0,1-.948-1.1,3.51,3.51,0,0,1-.354-1.6A3.5,3.5,0,0,1,15.48-4.6a2.858,2.858,0,0,1,.978-1.116,2.46,2.46,0,0,1,1.386-.408,1.761,1.761,0,0,1,1.278.426,2.232,2.232,0,0,1,.6,1.134,7.058,7.058,0,0,1,.162,1.572,5.62,5.62,0,0,1-.1.99,3.952,3.952,0,0,1-.33,1.02,2.076,2.076,0,0,1-.654.792A1.789,1.789,0,0,1,17.724.12Zm.24-.912a1.649,1.649,0,0,0,1.014-.3,1.761,1.761,0,0,0,.594-.8,3.029,3.029,0,0,0,.192-1.1,3.121,3.121,0,0,0-.2-1.158,1.686,1.686,0,0,0-.6-.78,1.7,1.7,0,0,0-1-.282,1.664,1.664,0,0,0-1.392.63,2.505,2.505,0,0,0-.492,1.59,2.527,2.527,0,0,0,.246,1.134,1.945,1.945,0,0,0,.672.78A1.71,1.71,0,0,0,17.964-.792ZM19.764-6h.96V0h-.876L19.83-.216l-.042-.5q-.024-.288-.024-.48Zm7.848,3.744a2.623,2.623,0,0,1-.474,1.278,2.572,2.572,0,0,1-.978.816A2.9,2.9,0,0,1,24.888.12a2.927,2.927,0,0,1-1.44-.372,2.855,2.855,0,0,1-1.086-1.074,3.213,3.213,0,0,1-.414-1.662,3.213,3.213,0,0,1,.414-1.662,2.946,2.946,0,0,1,1.086-1.086,2.855,2.855,0,0,1,1.44-.384,2.815,2.815,0,0,1,1.266.288,2.659,2.659,0,0,1,.972.816,2.664,2.664,0,0,1,.486,1.26h-.876a2.056,2.056,0,0,0-.708-1.074,1.814,1.814,0,0,0-1.14-.39,1.909,1.909,0,0,0-.972.264,1.948,1.948,0,0,0-.732.762,2.454,2.454,0,0,0-.276,1.206,2.428,2.428,0,0,0,.276,1.194,1.918,1.918,0,0,0,.726.756,1.933,1.933,0,0,0,.978.258,1.788,1.788,0,0,0,1.194-.39,2.178,2.178,0,0,0,.666-1.086ZM28.416-6h3.528v.9H28.416ZM29.7-7.56h.96V0H29.7Zm4.572-.84v1.164H33.024V-8.4ZM33.168-6h.96V0h-.96Zm4.92,5.172H37.8L39.636-6H40.68L38.4,0h-.9L35.232-6h1.044Zm5.7.948a2.275,2.275,0,0,1-1.3-.4,2.85,2.85,0,0,1-.948-1.1,3.51,3.51,0,0,1-.354-1.6,3.5,3.5,0,0,1,.36-1.608,2.858,2.858,0,0,1,.978-1.116,2.46,2.46,0,0,1,1.386-.408,1.761,1.761,0,0,1,1.278.426,2.232,2.232,0,0,1,.6,1.134,7.058,7.058,0,0,1,.162,1.572,5.62,5.62,0,0,1-.1.99,3.952,3.952,0,0,1-.33,1.02,2.076,2.076,0,0,1-.654.792A1.789,1.789,0,0,1,43.788.12Zm.24-.912a1.649,1.649,0,0,0,1.014-.3,1.761,1.761,0,0,0,.594-.8,3.029,3.029,0,0,0,.192-1.1,3.121,3.121,0,0,0-.2-1.158,1.686,1.686,0,0,0-.6-.78,1.7,1.7,0,0,0-1-.282,1.664,1.664,0,0,0-1.392.63,2.505,2.505,0,0,0-.492,1.59,2.527,2.527,0,0,0,.246,1.134,1.945,1.945,0,0,0,.672.78A1.711,1.711,0,0,0,44.028-.792ZM45.828-6h.96V0h-.876l-.018-.216-.042-.5q-.024-.288-.024-.48Zm2.1,0h3.528v.9H47.928Zm1.284-1.56h.96V0h-.96Zm7.512,5.628h.9A2.463,2.463,0,0,1,57.2-.882a2.338,2.338,0,0,1-.864.732A2.69,2.69,0,0,1,55.1.12a2.888,2.888,0,0,1-1.512-.4,2.9,2.9,0,0,1-1.062-1.1,3.243,3.243,0,0,1-.39-1.6A3.361,3.361,0,0,1,52.518-4.6a2.878,2.878,0,0,1,1.038-1.116,2.772,2.772,0,0,1,1.488-.408,2.682,2.682,0,0,1,1.482.39,2.311,2.311,0,0,1,.9,1.14,4.395,4.395,0,0,1,.234,1.842H53.1a2.487,2.487,0,0,0,.324,1.032,1.887,1.887,0,0,0,.7.69A1.953,1.953,0,0,0,55.1-.78,1.686,1.686,0,0,0,56.142-1.1,1.587,1.587,0,0,0,56.724-1.932ZM55.08-5.22a1.851,1.851,0,0,0-1.248.432,2.107,2.107,0,0,0-.672,1.176h3.516a1.659,1.659,0,0,0-.51-1.2A1.588,1.588,0,0,0,55.08-5.22ZM68.3-2.6a3.125,3.125,0,0,1-.576,1.452A3.026,3.026,0,0,1,66.57-.21,3.636,3.636,0,0,1,65,.12a3.866,3.866,0,0,1-1.488-.282,3.493,3.493,0,0,1-1.194-.81,3.759,3.759,0,0,1-.8-1.272A4.554,4.554,0,0,1,61.236-3.9a4.541,4.541,0,0,1,.288-1.662,3.771,3.771,0,0,1,.8-1.266,3.493,3.493,0,0,1,1.194-.81A3.866,3.866,0,0,1,65-7.92a3.665,3.665,0,0,1,1.578.33,3,3,0,0,1,1.158.948,3.177,3.177,0,0,1,.576,1.47h-.888a2.57,2.57,0,0,0-.522-1.008A2.367,2.367,0,0,0,66.06-6.8,2.6,2.6,0,0,0,65-7.02a2.765,2.765,0,0,0-1.374.36A2.718,2.718,0,0,0,62.592-5.6a3.4,3.4,0,0,0-.4,1.7,3.4,3.4,0,0,0,.4,1.7A2.718,2.718,0,0,0,63.63-1.14,2.765,2.765,0,0,0,65-.78a2.619,2.619,0,0,0,1.05-.21,2.317,2.317,0,0,0,.84-.618,2.575,2.575,0,0,0,.522-1ZM74.784,0h-.96V-6h.96Zm-.9-2.8.012.336q-.012.144-.066.444a4.542,4.542,0,0,1-.18.666,2.848,2.848,0,0,1-.36.7,1.893,1.893,0,0,1-.6.552,1.756,1.756,0,0,1-.906.216,2.653,2.653,0,0,1-.714-.1,2.03,2.03,0,0,1-.678-.336,1.657,1.657,0,0,1-.5-.654A2.509,2.509,0,0,1,69.7-2.016V-6h.96v3.744a1.721,1.721,0,0,0,.174.846,1,1,0,0,0,.474.438,1.651,1.651,0,0,0,.672.132A1.63,1.63,0,0,0,73-1.152a2.072,2.072,0,0,0,.624-.768A2.8,2.8,0,0,0,73.884-2.8Zm2.172.864h.888a1.207,1.207,0,0,0,.39.84,1.469,1.469,0,0,0,1.026.324A1.561,1.561,0,0,0,79-.876a.736.736,0,0,0,.342-.294.809.809,0,0,0,.108-.414.653.653,0,0,0-.138-.438,1.065,1.065,0,0,0-.372-.27,4.693,4.693,0,0,0-.534-.2q-.348-.132-.714-.282a3.968,3.968,0,0,1-.684-.36,1.7,1.7,0,0,1-.51-.516,1.361,1.361,0,0,1-.192-.738,1.624,1.624,0,0,1,.144-.678,1.593,1.593,0,0,1,.414-.552,1.991,1.991,0,0,1,.636-.366,2.373,2.373,0,0,1,.81-.132,1.992,1.992,0,0,1,1.014.24,1.6,1.6,0,0,1,.636.678A2.323,2.323,0,0,1,80.2-4.188h-.828a1.344,1.344,0,0,0-.342-.786,1.028,1.028,0,0,0-.738-.246A1.166,1.166,0,0,0,77.532-5a.706.706,0,0,0-.264.576.566.566,0,0,0,.192.438,1.9,1.9,0,0,0,.5.312q.306.138.654.282t.672.288a2.867,2.867,0,0,1,.576.336,1.437,1.437,0,0,1,.4.474,1.482,1.482,0,0,1,.15.7,1.7,1.7,0,0,1-.234.894,1.56,1.56,0,0,1-.684.606A2.523,2.523,0,0,1,78.4.12a2.954,2.954,0,0,1-1-.15,2.1,2.1,0,0,1-.69-.4,1.958,1.958,0,0,1-.426-.522,1.814,1.814,0,0,1-.2-.54A1.462,1.462,0,0,1,76.056-1.932ZM81.216-6h3.528v.9H81.216ZM82.5-7.56h.96V0H82.5ZM88.368.12a2.927,2.927,0,0,1-1.44-.372,2.855,2.855,0,0,1-1.086-1.074,3.213,3.213,0,0,1-.414-1.662,3.213,3.213,0,0,1,.414-1.662,2.946,2.946,0,0,1,1.086-1.086,2.855,2.855,0,0,1,1.44-.384,2.823,2.823,0,0,1,1.434.384A2.916,2.916,0,0,1,90.876-4.65a3.25,3.25,0,0,1,.408,1.662,3.25,3.25,0,0,1-.408,1.662A2.825,2.825,0,0,1,89.8-.252,2.893,2.893,0,0,1,88.368.12Zm0-.9a1.89,1.89,0,0,0,.948-.252,1.929,1.929,0,0,0,.726-.75,2.412,2.412,0,0,0,.282-1.206,2.412,2.412,0,0,0-.282-1.206,2.021,2.021,0,0,0-.726-.762,1.824,1.824,0,0,0-.948-.264,1.889,1.889,0,0,0-.954.258,2,2,0,0,0-.738.756,2.4,2.4,0,0,0-.288,1.218,2.412,2.412,0,0,0,.282,1.206,1.9,1.9,0,0,0,.738.75A1.956,1.956,0,0,0,88.368-.78ZM92.508-6h.96V0h-.96Zm3.024-.12a2.446,2.446,0,0,1,.864.144,1.715,1.715,0,0,1,.648.42,1.9,1.9,0,0,1,.408.666,2.534,2.534,0,0,1,.144.882V0h-.96V-3.768a1.484,1.484,0,0,0-.324-1.044,1.265,1.265,0,0,0-.972-.348,1.741,1.741,0,0,0-.912.252,2.033,2.033,0,0,0-.69.69,2.374,2.374,0,0,0-.33,1.014L93.4-3.9a3.057,3.057,0,0,1,.246-.912,2.5,2.5,0,0,1,.468-.7,1.95,1.95,0,0,1,.648-.45A1.954,1.954,0,0,1,95.532-6.12Zm4.032,0a2.447,2.447,0,0,1,.864.144,1.715,1.715,0,0,1,.648.42,1.9,1.9,0,0,1,.408.666,2.534,2.534,0,0,1,.144.882V0h-.96V-3.768a1.484,1.484,0,0,0-.324-1.044,1.265,1.265,0,0,0-.972-.348,1.741,1.741,0,0,0-.912.252,2.033,2.033,0,0,0-.69.69A2.374,2.374,0,0,0,97.44-3.2l-.012-.7a3.057,3.057,0,0,1,.246-.912,2.5,2.5,0,0,1,.468-.7,1.95,1.95,0,0,1,.648-.45A1.953,1.953,0,0,1,99.564-6.12Zm5.064-1.68h6.24v.9h-6.24Zm2.64.8h.96V0h-.96ZM115.2,0V-3.768a1.819,1.819,0,0,0-.144-.774A.989.989,0,0,0,114.624-5a1.5,1.5,0,0,0-.72-.156,1.741,1.741,0,0,0-.912.252,2.033,2.033,0,0,0-.69.69,2.374,2.374,0,0,0-.33,1.014l-.012-.7a3.057,3.057,0,0,1,.246-.912,2.5,2.5,0,0,1,.468-.7,1.95,1.95,0,0,1,.648-.45,1.953,1.953,0,0,1,.774-.156,2.447,2.447,0,0,1,.864.144,1.715,1.715,0,0,1,.648.42,1.9,1.9,0,0,1,.408.666,2.534,2.534,0,0,1,.144.882V0Zm-4.128,0V-8.4h.96V0Zm10.9-1.932h.9a2.463,2.463,0,0,1-.426,1.05,2.338,2.338,0,0,1-.864.732,2.69,2.69,0,0,1-1.23.27,2.888,2.888,0,0,1-1.512-.4,2.9,2.9,0,0,1-1.062-1.1,3.243,3.243,0,0,1-.39-1.6,3.361,3.361,0,0,1,.378-1.608A2.878,2.878,0,0,1,118.8-5.712a2.772,2.772,0,0,1,1.488-.408,2.682,2.682,0,0,1,1.482.39,2.311,2.311,0,0,1,.9,1.14,4.395,4.395,0,0,1,.234,1.842h-4.56a2.487,2.487,0,0,0,.324,1.032,1.887,1.887,0,0,0,.7.69,1.953,1.953,0,0,0,.984.246,1.686,1.686,0,0,0,1.038-.318A1.587,1.587,0,0,0,121.968-1.932ZM120.324-5.22a1.851,1.851,0,0,0-1.248.432,2.107,2.107,0,0,0-.672,1.176h3.516a1.659,1.659,0,0,0-.51-1.2A1.588,1.588,0,0,0,120.324-5.22ZM124.14-6h.96V0h-.96Zm3.024-.12a2.446,2.446,0,0,1,.864.144,1.715,1.715,0,0,1,.648.42,1.9,1.9,0,0,1,.408.666,2.534,2.534,0,0,1,.144.882V0h-.96V-3.768a1.484,1.484,0,0,0-.324-1.044,1.265,1.265,0,0,0-.972-.348,1.741,1.741,0,0,0-.912.252,2.033,2.033,0,0,0-.69.69,2.374,2.374,0,0,0-.33,1.014l-.012-.7a3.057,3.057,0,0,1,.246-.912,2.5,2.5,0,0,1,.468-.7,1.95,1.95,0,0,1,.648-.45A1.954,1.954,0,0,1,127.164-6.12Zm4.032,0a2.446,2.446,0,0,1,.864.144,1.715,1.715,0,0,1,.648.42,1.9,1.9,0,0,1,.408.666,2.534,2.534,0,0,1,.144.882V0h-.96V-3.768a1.484,1.484,0,0,0-.324-1.044A1.265,1.265,0,0,0,131-5.16a1.741,1.741,0,0,0-.912.252,2.033,2.033,0,0,0-.69.69,2.373,2.373,0,0,0-.33,1.014l-.012-.7a3.057,3.057,0,0,1,.246-.912,2.5,2.5,0,0,1,.468-.7,1.95,1.95,0,0,1,.648-.45A1.953,1.953,0,0,1,131.2-6.12Zm4.812-2.28v1.164H134.76V-8.4ZM134.9-6h.96V0h-.96Zm2.6,0h.96V0h-.96Zm3.024-.12a2.446,2.446,0,0,1,.864.144,1.715,1.715,0,0,1,.648.42,1.9,1.9,0,0,1,.408.666,2.534,2.534,0,0,1,.144.882V0h-.96V-3.768a1.484,1.484,0,0,0-.324-1.044,1.265,1.265,0,0,0-.972-.348,1.741,1.741,0,0,0-.912.252,2.033,2.033,0,0,0-.69.69,2.374,2.374,0,0,0-.33,1.014l-.012-.7a3.057,3.057,0,0,1,.246-.912,2.5,2.5,0,0,1,.468-.7,1.95,1.95,0,0,1,.648-.45A1.953,1.953,0,0,1,140.532-6.12ZM146.3-.948a2.513,2.513,0,0,1-1.206-.306,2.411,2.411,0,0,1-.924-.882,2.585,2.585,0,0,1-.354-1.38,2.651,2.651,0,0,1,.348-1.386,2.459,2.459,0,0,1,.912-.9A2.451,2.451,0,0,1,146.3-6.12a2.448,2.448,0,0,1,.39.03,1.994,1.994,0,0,1,.354.09h2.436v1.032a2.893,2.893,0,0,1-1.026-.192,6.233,6.233,0,0,1-.87-.4L147.54-5.6a2.437,2.437,0,0,1,.69.54,2.169,2.169,0,0,1,.408.7,2.519,2.519,0,0,1,.138.846,2.655,2.655,0,0,1-.342,1.38,2.338,2.338,0,0,1-.906.882A2.526,2.526,0,0,1,146.3-.948ZM148.068,2.4V2.136a1.166,1.166,0,0,0-.33-.924,1.47,1.47,0,0,0-.99-.288h-1.2a3.18,3.18,0,0,1-.69-.066,1.389,1.389,0,0,1-.486-.2.855.855,0,0,1-.288-.324.953.953,0,0,1-.1-.432.854.854,0,0,1,.276-.69,1.332,1.332,0,0,1,.684-.294,2.549,2.549,0,0,1,.78,0l.576.132a5.128,5.128,0,0,0-1,.132.407.407,0,0,0-.354.408.364.364,0,0,0,.138.294A.639.639,0,0,0,145.5,0h1.248a3.55,3.55,0,0,1,1.14.174,1.682,1.682,0,0,1,.828.588,1.845,1.845,0,0,1,.312,1.134v.5ZM146.3-1.848a1.483,1.483,0,0,0,.738-.192A1.482,1.482,0,0,0,147.6-2.6a1.789,1.789,0,0,0,.216-.912,1.865,1.865,0,0,0-.21-.918,1.461,1.461,0,0,0-.558-.576,1.48,1.48,0,0,0-.744-.2,1.48,1.48,0,0,0-.744.2,1.513,1.513,0,0,0-.564.57,1.815,1.815,0,0,0-.216.924A1.789,1.789,0,0,0,145-2.6a1.469,1.469,0,0,0,.564.564A1.516,1.516,0,0,0,146.3-1.848Z" transform="translate(-0.96 8.4)"/></svg>