<svg xmlns="http://www.w3.org/2000/svg" viewBox="0 0 24 24">    <path d="M17.023,2.339c-0.318-0.293-0.444-0.423-0.954-0.318C15.711,2.096,7.267,3.898,3.925,8.905C3.11,10.275,3,11.522,3,12.563 c0,2.511,1.574,4.879,3.868,5.893c-0.689,0.552-1.713,1.29-2.428,1.661c-0.453,0.235-0.65,0.775-0.46,1.249l0,0 c0.219,0.549,0.866,0.795,1.39,0.522c4.747-2.468,9.16-9.128,9.589-14.124c0.022-0.255,0.373-0.44,0.445-0.007 c0.353,2.111-0.823,8.116-4.162,12.086c1.191,1.129,2.515,1.149,3.068,1.156c3.385-0.135,6.766-2.857,6.689-8.636 C20.963,9.66,19.899,5.607,17.023,2.339z"></path></svg>