<svg xmlns="http://www.w3.org/2000/svg" viewBox="0 0 24 24"><path d="M 19.945312 1.9863281 A 1.0001 1.0001 0 0 0 19.011719 2.8417969 C 18.873417 3.7103496 18.560529 4.0724934 18.146484 4.4550781 C 17.207497 3.5296926 15.46896 2.1358075 13.400391 2.0097656 C 11.890391 1.9197656 10.519063 2.4909375 9.2890625 3.7109375 C 9.1090625 3.8909375 9.01 4.1308594 9 4.3808594 L 9 4.390625 C 9.14 4.920625 10.000859 7.7391406 13.130859 10.869141 C 16.230859 13.969141 19.029844 14.84 19.589844 15 L 19.609375 15 C 19.859375 14.99 20.099062 14.900937 20.289062 14.710938 C 21.509063 13.490937 22.080234 12.119141 21.990234 10.619141 C 21.871898 8.5556581 20.485592 6.8166606 19.556641 5.8691406 C 20.126103 5.305935 20.773036 4.5099757 20.988281 3.1582031 A 1.0001 1.0001 0 0 0 20.044922 1.9863281 A 1.0001 1.0001 0 0 0 19.945312 1.9863281 z M 7.0546875 6.0351562 C 4.3616875 8.7441562 3 11.756 3 15 C 3 16.18 3.4108594 17.099922 3.8808594 17.919922 C 3.8358594 18.119922 3.2974688 18.866141 3.1054688 19.244141 C 2.9124688 19.624141 2.9919687 20.087625 3.2929688 20.390625 L 3.6035156 20.703125 C 3.9035156 21.006125 4.3660469 21.089437 4.7480469 20.898438 C 5.1240469 20.711438 5.8740781 20.175859 6.0800781 20.130859 C 7.0400781 20.680859 7.84 21 9 21 C 12.13 21 15.170547 19.589453 17.810547 16.939453 C 17.880547 16.869453 17.989141 16.749375 18.119141 16.609375 C 16.739141 16.089375 14.320703 14.879297 11.720703 12.279297 C 9.2617031 9.8202969 8.0485156 7.5202344 7.4785156 6.1152344 C 7.3005156 6.0812344 7.2326875 6.0691562 7.0546875 6.0351562 z"></path></svg>