<svg xmlns="http://www.w3.org/2000/svg" width="79.642" height="11.858" viewBox="0 0 79.642 11.858"><defs><style>.a{fill:#202223;}</style></defs><path class="a" d="M2.688-2.94V-4.424H6.832a1.67,1.67,0,0,0,1.176-.4,1.436,1.436,0,0,0,.434-1.113A1.45,1.45,0,0,0,8.008-7.07a1.689,1.689,0,0,0-1.176-.392H2.912V0H1.05V-9.058H6.664a5.363,5.363,0,0,1,1.421.182,3.363,3.363,0,0,1,1.162.56,2.593,2.593,0,0,1,.777.966,3.265,3.265,0,0,1,.28,1.414,3.137,3.137,0,0,1-.28,1.386,2.443,2.443,0,0,1-.777.931A3.3,3.3,0,0,1,8.085-3.1a6.025,6.025,0,0,1-1.421.161ZM14.966.154A3.915,3.915,0,0,1,13.083-.3a3.459,3.459,0,0,1-1.344-1.274,3.584,3.584,0,0,1-.5-1.9,3.563,3.563,0,0,1,.5-1.918,3.5,3.5,0,0,1,1.365-1.267,4.116,4.116,0,0,1,1.953-.455A3.479,3.479,0,0,1,17-6.629,2.785,2.785,0,0,1,18.074-5.32a4.864,4.864,0,0,1,.336,1.848,4.246,4.246,0,0,1-.2,1.253,3.8,3.8,0,0,1-.6,1.176,2.966,2.966,0,0,1-1.064.868A3.5,3.5,0,0,1,14.966.154Zm.588-1.4a3.36,3.36,0,0,0,1.428-.28,2.128,2.128,0,0,0,.924-.784,2.111,2.111,0,0,0,.322-1.162A2.145,2.145,0,0,0,17.9-4.683a2.064,2.064,0,0,0-.924-.756A3.545,3.545,0,0,0,15.554-5.7a2.525,2.525,0,0,0-1.806.609A2.121,2.121,0,0,0,13.1-3.472,2.174,2.174,0,0,0,13.412-2.3a2.108,2.108,0,0,0,.861.777A2.8,2.8,0,0,0,15.554-1.246Zm2.674-5.712h1.82V0H18.354l-.035-.273q-.035-.273-.063-.693t-.028-.826ZM26.768.168a3.46,3.46,0,0,1-1.575-.329,2.982,2.982,0,0,1-1.057-.868,3.782,3.782,0,0,1-.6-1.183,4.315,4.315,0,0,1-.2-1.26A5.155,5.155,0,0,1,23.527-4.9a3.2,3.2,0,0,1,.6-1.155,2.728,2.728,0,0,1,1.057-.777,4.018,4.018,0,0,1,1.589-.28,3.856,3.856,0,0,1,1.89.462A3.525,3.525,0,0,1,30-5.369a3.584,3.584,0,0,1,.5,1.9,3.6,3.6,0,0,1-.5,1.925A3.471,3.471,0,0,1,28.644-.28,3.923,3.923,0,0,1,26.768.168ZM26.18-1.246a2.832,2.832,0,0,0,1.3-.28,2.06,2.06,0,0,0,.854-.777,2.213,2.213,0,0,0,.3-1.169A2.156,2.156,0,0,0,27.993-5.1a2.5,2.5,0,0,0-1.813-.616,3.34,3.34,0,0,0-1.351.266,2.237,2.237,0,0,0-.959.763,2.05,2.05,0,0,0-.35,1.211A2.1,2.1,0,0,0,23.842-2.3a2.146,2.146,0,0,0,.924.777A3.324,3.324,0,0,0,26.18-1.246ZM21.7-6.958h1.736L23.52-5.11V2.8H21.7ZM38.178-2.31h1.764a2.513,2.513,0,0,1-.595,1.274,3.243,3.243,0,0,1-1.309.882,5.567,5.567,0,0,1-2.016.322A6.059,6.059,0,0,1,33.67-.259a3.6,3.6,0,0,1-1.6-1.239,3.308,3.308,0,0,1-.574-1.96,3.4,3.4,0,0,1,.56-1.967,3.546,3.546,0,0,1,1.561-1.253,5.858,5.858,0,0,1,2.345-.434,5.293,5.293,0,0,1,2.282.434A2.832,2.832,0,0,1,39.6-5.369a4.434,4.434,0,0,1,.371,2.233H33.334a2.008,2.008,0,0,0,.4.966,2.235,2.235,0,0,0,.9.686,3.309,3.309,0,0,0,1.351.252,3.129,3.129,0,0,0,1.449-.3A1.436,1.436,0,0,0,38.178-2.31Zm-2.3-3.416a2.8,2.8,0,0,0-1.638.441A1.969,1.969,0,0,0,33.432-4.2h4.732A1.48,1.48,0,0,0,37.5-5.313,2.794,2.794,0,0,0,35.882-5.726Zm5.446-1.232h1.82V0h-1.82Zm4.494,1.5a2.886,2.886,0,0,0-1.358.3,2.888,2.888,0,0,0-.924.735,2.835,2.835,0,0,0-.49.84l-.014-.77a2.711,2.711,0,0,1,.112-.5,4.3,4.3,0,0,1,.294-.714,3.443,3.443,0,0,1,.518-.742,2.526,2.526,0,0,1,.784-.581,2.444,2.444,0,0,1,1.078-.224Zm6.37.14h7.182v1.554H52.192Zm6.874-3.738h1.862V0H59.066Zm-8.512,0h1.862V0H50.554ZM70.9,0h-1.82V-6.958H70.9ZM69.174-3.346l.014.476a4.2,4.2,0,0,1-.14.567,4.144,4.144,0,0,1-.343.791,3.935,3.935,0,0,1-.6.805,2.865,2.865,0,0,1-.9.63,2.99,2.99,0,0,1-1.26.245,4.574,4.574,0,0,1-1.127-.14,2.859,2.859,0,0,1-1-.469,2.3,2.3,0,0,1-.714-.889,3.3,3.3,0,0,1-.266-1.414V-6.958h1.82v3.906A2.162,2.162,0,0,0,64.883-2a1.171,1.171,0,0,0,.637.539,2.889,2.889,0,0,0,.994.154,2.476,2.476,0,0,0,1.3-.329,2.962,2.962,0,0,0,.889-.805A3.026,3.026,0,0,0,69.174-3.346ZM78.89-2.31h1.764a2.513,2.513,0,0,1-.6,1.274,3.243,3.243,0,0,1-1.309.882,5.567,5.567,0,0,1-2.016.322,6.059,6.059,0,0,1-2.352-.427,3.6,3.6,0,0,1-1.6-1.239,3.308,3.308,0,0,1-.574-1.96,3.4,3.4,0,0,1,.56-1.967,3.546,3.546,0,0,1,1.561-1.253,5.858,5.858,0,0,1,2.345-.434,5.293,5.293,0,0,1,2.282.434,2.832,2.832,0,0,1,1.351,1.309,4.433,4.433,0,0,1,.371,2.233H74.046a2.008,2.008,0,0,0,.4.966,2.235,2.235,0,0,0,.9.686,3.309,3.309,0,0,0,1.351.252,3.129,3.129,0,0,0,1.449-.3A1.436,1.436,0,0,0,78.89-2.31Zm-2.3-3.416a2.8,2.8,0,0,0-1.638.441A1.969,1.969,0,0,0,74.144-4.2h4.732a1.48,1.48,0,0,0-.665-1.113A2.794,2.794,0,0,0,76.594-5.726Z" transform="translate(-1.05 9.058)"/></svg>