<svg xmlns="http://www.w3.org/2000/svg" width="174.078" height="16.2" viewBox="0 0 174.078 16.2"><defs><style>.a{fill:#d9d2ce;}</style></defs><path class="a" d="M2.556-4.14V-5.49H6.228a2.374,2.374,0,0,0,1.755-.675A2.374,2.374,0,0,0,8.658-7.92a2.36,2.36,0,0,0-.675-1.773,2.41,2.41,0,0,0-1.755-.657H2.844V0H1.4V-11.7H6.228a4.443,4.443,0,0,1,1.512.252,3.613,3.613,0,0,1,1.233.738A3.362,3.362,0,0,1,9.8-9.522a4.079,4.079,0,0,1,.3,1.6,4.079,4.079,0,0,1-.3,1.6A3.362,3.362,0,0,1,8.973-5.13a3.613,3.613,0,0,1-1.233.738,4.443,4.443,0,0,1-1.512.252Zm11.3-8.46v1.746H11.988V-12.6ZM12.2-9h1.44V0H12.2ZM24.1-3.384a3.935,3.935,0,0,1-.711,1.917A3.858,3.858,0,0,1,21.924-.243,4.355,4.355,0,0,1,20.016.18a4.39,4.39,0,0,1-2.16-.558,4.282,4.282,0,0,1-1.629-1.611,4.819,4.819,0,0,1-.621-2.493,4.819,4.819,0,0,1,.621-2.493A4.419,4.419,0,0,1,17.856-8.6a4.283,4.283,0,0,1,2.16-.576,4.222,4.222,0,0,1,1.9.432,3.989,3.989,0,0,1,1.458,1.224,4,4,0,0,1,.729,1.89H22.788a3.085,3.085,0,0,0-1.062-1.611,2.722,2.722,0,0,0-1.71-.585,2.863,2.863,0,0,0-1.458.4,2.922,2.922,0,0,0-1.1,1.143,3.681,3.681,0,0,0-.414,1.809,3.642,3.642,0,0,0,.414,1.791,2.877,2.877,0,0,0,1.089,1.134,2.9,2.9,0,0,0,1.467.387,2.681,2.681,0,0,0,1.791-.585,3.268,3.268,0,0,0,1-1.629ZM26.154-12.6h1.44V0h-1.44ZM33.606-9l-4.5,4.446.036-.936L33.912,0H32.076L27.63-5.022,31.554-9Zm4.626,0H39.78L43-.36,41.742,0ZM46.6-9,41.58,3.6H40.014l2.178-4.86L45.072-9ZM51.768.18a4.39,4.39,0,0,1-2.16-.558,4.282,4.282,0,0,1-1.629-1.611,4.819,4.819,0,0,1-.621-2.493,4.819,4.819,0,0,1,.621-2.493A4.419,4.419,0,0,1,49.608-8.6a4.283,4.283,0,0,1,2.16-.576,4.235,4.235,0,0,1,2.151.576A4.374,4.374,0,0,1,55.53-6.975a4.875,4.875,0,0,1,.612,2.493,4.875,4.875,0,0,1-.612,2.493A4.238,4.238,0,0,1,53.919-.378,4.34,4.34,0,0,1,51.768.18Zm0-1.35a2.835,2.835,0,0,0,1.422-.378,2.894,2.894,0,0,0,1.089-1.125A3.618,3.618,0,0,0,54.7-4.482a3.618,3.618,0,0,0-.423-1.809A3.031,3.031,0,0,0,53.19-7.434a2.736,2.736,0,0,0-1.422-.4,2.833,2.833,0,0,0-1.431.387A3,3,0,0,0,49.23-6.309,3.6,3.6,0,0,0,48.8-4.482a3.618,3.618,0,0,0,.423,1.809,2.854,2.854,0,0,0,1.107,1.125A2.935,2.935,0,0,0,51.768-1.17ZM65.61,0H64.17V-9h1.44ZM64.26-4.194l.018.5q-.018.216-.1.666a6.813,6.813,0,0,1-.27,1,4.272,4.272,0,0,1-.54,1.053,2.839,2.839,0,0,1-.9.828A2.634,2.634,0,0,1,61.11.18,3.98,3.98,0,0,1,60.039.027a3.045,3.045,0,0,1-1.017-.5,2.486,2.486,0,0,1-.756-.981,3.764,3.764,0,0,1-.288-1.566V-9h1.44v5.616a2.581,2.581,0,0,0,.261,1.269,1.5,1.5,0,0,0,.711.657,2.477,2.477,0,0,0,1.008.2,2.445,2.445,0,0,0,1.53-.468,3.107,3.107,0,0,0,.936-1.152A4.192,4.192,0,0,0,64.26-4.194ZM67.95-9h1.44V0H67.95Zm4.32,1.35a2.518,2.518,0,0,0-1.539.459,3.324,3.324,0,0,0-.972,1.116A4.288,4.288,0,0,0,69.3-4.806L69.282-5.85a3.326,3.326,0,0,1,.072-.54,4.436,4.436,0,0,1,.27-.855,4.185,4.185,0,0,1,.531-.918,2.669,2.669,0,0,1,.855-.729,2.573,2.573,0,0,1,1.26-.288ZM77.04-9h5.292v1.35H77.04Zm1.926-2.34h1.44V0h-1.44ZM90.45,0V-5.652a2.728,2.728,0,0,0-.216-1.161,1.484,1.484,0,0,0-.648-.693,2.248,2.248,0,0,0-1.08-.234,2.611,2.611,0,0,0-1.368.378A3.05,3.05,0,0,0,86.1-6.327a3.56,3.56,0,0,0-.5,1.521L85.59-5.85a4.586,4.586,0,0,1,.369-1.368,3.755,3.755,0,0,1,.7-1.053,2.925,2.925,0,0,1,.972-.675,2.93,2.93,0,0,1,1.161-.234,3.67,3.67,0,0,1,1.3.216,2.573,2.573,0,0,1,.972.63,2.855,2.855,0,0,1,.612,1,3.8,3.8,0,0,1,.216,1.323V0ZM84.258,0V-12.6H85.7V0ZM100.6-2.9h1.35a3.694,3.694,0,0,1-.639,1.575,3.506,3.506,0,0,1-1.3,1.1A4.035,4.035,0,0,1,98.172.18a4.332,4.332,0,0,1-2.268-.6,4.357,4.357,0,0,1-1.593-1.656,4.864,4.864,0,0,1-.585-2.4,5.041,5.041,0,0,1,.567-2.412A4.318,4.318,0,0,1,95.85-8.568a4.158,4.158,0,0,1,2.232-.612,4.023,4.023,0,0,1,2.223.585,3.466,3.466,0,0,1,1.35,1.71,6.592,6.592,0,0,1,.351,2.763h-6.84a3.731,3.731,0,0,0,.486,1.548A2.831,2.831,0,0,0,96.7-1.539a2.93,2.93,0,0,0,1.476.369,2.529,2.529,0,0,0,1.557-.477A2.38,2.38,0,0,0,100.6-2.9ZM98.136-7.83a2.776,2.776,0,0,0-1.872.648,3.161,3.161,0,0,0-1.008,1.764h5.274a2.488,2.488,0,0,0-.765-1.8A2.382,2.382,0,0,0,98.136-7.83ZM103.86-9h1.44V0h-1.44Zm4.536-.18a3.67,3.67,0,0,1,1.3.216,2.573,2.573,0,0,1,.972.63,2.855,2.855,0,0,1,.612,1,3.8,3.8,0,0,1,.216,1.323V0h-1.44V-5.652a2.226,2.226,0,0,0-.486-1.566,1.9,1.9,0,0,0-1.458-.522,2.611,2.611,0,0,0-1.368.378A3.05,3.05,0,0,0,105.7-6.327a3.561,3.561,0,0,0-.5,1.521l-.018-1.044a4.586,4.586,0,0,1,.369-1.368,3.755,3.755,0,0,1,.7-1.053,2.925,2.925,0,0,1,.972-.675A2.93,2.93,0,0,1,108.4-9.18Zm6.048,0a3.67,3.67,0,0,1,1.3.216,2.573,2.573,0,0,1,.972.63,2.855,2.855,0,0,1,.612,1,3.8,3.8,0,0,1,.216,1.323V0H116.1V-5.652a2.226,2.226,0,0,0-.486-1.566,1.9,1.9,0,0,0-1.458-.522,2.611,2.611,0,0,0-1.368.378,3.05,3.05,0,0,0-1.035,1.035,3.56,3.56,0,0,0-.5,1.521L111.24-5.85a4.586,4.586,0,0,1,.369-1.368,3.755,3.755,0,0,1,.7-1.053,2.925,2.925,0,0,1,.972-.675A2.93,2.93,0,0,1,114.444-9.18ZM126.252-2.9h1.35a3.694,3.694,0,0,1-.639,1.575,3.506,3.506,0,0,1-1.3,1.1,4.035,4.035,0,0,1-1.845.405,4.332,4.332,0,0,1-2.268-.6,4.357,4.357,0,0,1-1.593-1.656,4.864,4.864,0,0,1-.585-2.4,5.041,5.041,0,0,1,.567-2.412A4.318,4.318,0,0,1,121.5-8.568a4.158,4.158,0,0,1,2.232-.612,4.023,4.023,0,0,1,2.223.585,3.466,3.466,0,0,1,1.35,1.71,6.592,6.592,0,0,1,.351,2.763h-6.84a3.731,3.731,0,0,0,.486,1.548,2.831,2.831,0,0,0,1.044,1.035,2.93,2.93,0,0,0,1.476.369,2.529,2.529,0,0,0,1.557-.477A2.38,2.38,0,0,0,126.252-2.9ZM123.786-7.83a2.776,2.776,0,0,0-1.872.648,3.161,3.161,0,0,0-1.008,1.764h5.274a2.488,2.488,0,0,0-.765-1.8A2.382,2.382,0,0,0,123.786-7.83Zm17.5,4.446a3.935,3.935,0,0,1-.711,1.917A3.858,3.858,0,0,1,139.1-.243,4.355,4.355,0,0,1,137.2.18a4.39,4.39,0,0,1-2.16-.558,4.282,4.282,0,0,1-1.629-1.611,4.819,4.819,0,0,1-.621-2.493,4.819,4.819,0,0,1,.621-2.493A4.419,4.419,0,0,1,135.036-8.6a4.283,4.283,0,0,1,2.16-.576,4.222,4.222,0,0,1,1.9.432,3.989,3.989,0,0,1,1.458,1.224,4,4,0,0,1,.729,1.89h-1.314a3.085,3.085,0,0,0-1.062-1.611,2.722,2.722,0,0,0-1.71-.585,2.864,2.864,0,0,0-1.458.4,2.922,2.922,0,0,0-1.1,1.143,3.681,3.681,0,0,0-.414,1.809,3.642,3.642,0,0,0,.414,1.791,2.877,2.877,0,0,0,1.089,1.134,2.9,2.9,0,0,0,1.467.387,2.681,2.681,0,0,0,1.791-.585,3.268,3.268,0,0,0,1-1.629ZM147.024.18a4.39,4.39,0,0,1-2.16-.558,4.282,4.282,0,0,1-1.629-1.611,4.819,4.819,0,0,1-.621-2.493,4.819,4.819,0,0,1,.621-2.493A4.419,4.419,0,0,1,144.864-8.6a4.283,4.283,0,0,1,2.16-.576,4.235,4.235,0,0,1,2.151.576,4.374,4.374,0,0,1,1.611,1.629,4.875,4.875,0,0,1,.612,2.493,4.875,4.875,0,0,1-.612,2.493,4.238,4.238,0,0,1-1.611,1.611A4.34,4.34,0,0,1,147.024.18Zm0-1.35a2.835,2.835,0,0,0,1.422-.378,2.894,2.894,0,0,0,1.089-1.125,3.618,3.618,0,0,0,.423-1.809,3.618,3.618,0,0,0-.423-1.809,3.031,3.031,0,0,0-1.089-1.143,2.736,2.736,0,0,0-1.422-.4,2.833,2.833,0,0,0-1.431.387,3,3,0,0,0-1.107,1.134,3.6,3.6,0,0,0-.432,1.827,3.618,3.618,0,0,0,.423,1.809,2.854,2.854,0,0,0,1.107,1.125A2.935,2.935,0,0,0,147.024-1.17Zm6.39-11.43h1.44V0h-1.44ZM161.28.18a4.39,4.39,0,0,1-2.16-.558,4.282,4.282,0,0,1-1.629-1.611,4.819,4.819,0,0,1-.621-2.493,4.819,4.819,0,0,1,.621-2.493A4.419,4.419,0,0,1,159.12-8.6a4.283,4.283,0,0,1,2.16-.576,4.235,4.235,0,0,1,2.151.576,4.374,4.374,0,0,1,1.611,1.629,4.875,4.875,0,0,1,.612,2.493,4.875,4.875,0,0,1-.612,2.493,4.238,4.238,0,0,1-1.611,1.611A4.34,4.34,0,0,1,161.28.18Zm0-1.35a2.835,2.835,0,0,0,1.422-.378,2.894,2.894,0,0,0,1.089-1.125,3.618,3.618,0,0,0,.423-1.809,3.618,3.618,0,0,0-.423-1.809A3.031,3.031,0,0,0,162.7-7.434a2.736,2.736,0,0,0-1.422-.4,2.833,2.833,0,0,0-1.431.387,3,3,0,0,0-1.107,1.134,3.6,3.6,0,0,0-.432,1.827,3.618,3.618,0,0,0,.423,1.809,2.854,2.854,0,0,0,1.107,1.125A2.935,2.935,0,0,0,161.28-1.17ZM167.49-9h1.44V0h-1.44Zm4.32,1.35a2.518,2.518,0,0,0-1.539.459,3.324,3.324,0,0,0-.972,1.116,4.289,4.289,0,0,0-.459,1.269l-.018-1.044a3.325,3.325,0,0,1,.072-.54,4.436,4.436,0,0,1,.27-.855,4.185,4.185,0,0,1,.531-.918,2.669,2.669,0,0,1,.855-.729,2.573,2.573,0,0,1,1.26-.288Zm3.672,5.886V0H173.61V-1.764Zm0-7V-7H173.61V-8.766Z" transform="translate(-1.404 12.6)"/></svg>